<?xml version="1.0" encoding="utf-8"?>
<!-- Generator: Adobe Illustrator 24.3.0, SVG Export Plug-In . SVG Version: 6.00 Build 0)  -->
<svg version="1.1" id="Layer_1" xmlns="http://www.w3.org/2000/svg" xmlns:xlink="http://www.w3.org/1999/xlink" x="0px" y="0px"
	 viewBox="0 0 2000 2000" style="enable-background:new 0 0 2000 2000;" xml:space="preserve">
<style type="text/css">
	.st0{fill-rule:evenodd;clip-rule:evenodd;fill:#151742;}
	.st1{fill:#151742;}
	.st2{fill:#DFDCE4;}
	.st3{fill-rule:evenodd;clip-rule:evenodd;fill:#FFFFFF;}
</style>
<g>
	<path class="st0" d="M1475,987.3c1.2,1.1,2.2,2,3.1,2.7l-12.1,13.8c-1-0.8-2.1-1.8-3.3-2.9c-7.3-6.6-19.4-17.4-34.8-27.6
		c-18-12-39.6-22.5-61.9-24.3l1.5-18.3c26.8,2.2,51.4,14.6,70.6,27.3C1454.5,969,1467.7,980.8,1475,987.3z"/>
	<path class="st1" d="M1514.2,983.7c-9.9-26-40.7-36.9-64.7-23c-24.3,14-30,46.6-12,68.1l12.5,14.8c4,4.8,11.1,5.8,16.3,2.3
		l49.2-33.3c4.5-3.1,6.3-8.8,4.4-13.9L1514.2,983.7z"/>
	<path class="st2" d="M1569.4,1299.7c-51.6,34.7-122.3-0.2-124.3-62.3l-7.3-225.4c-0.1-3.4,0.5-6.7,1.9-9.8
		c14.2-32.5,58.5-36.9,78.8-7.8l85.9,123.3C1645.6,1177,1629.3,1259.3,1569.4,1299.7z"/>
	<path class="st1" d="M1573.6,1275.5c-28.8,26.2-68.5,29.5-88.6,7.4c-20.2-22.1-13.2-61.3,15.6-87.5c28.8-26.2,68.4-29.5,88.6-7.4
		C1609.3,1210.1,1602.3,1249.3,1573.6,1275.5z"/>
	<path class="st0" d="M1485.2,1340.1c-3.8-3.3-4.2-9.2-0.9-13c1.7-1.9,3.7-4,5.9-6.4c14.6-15.5,39.4-41.8,42.6-81
		c0.4-5.1,4.9-8.8,9.9-8.4c5.1,0.4,8.8,4.9,8.4,9.9c-3.8,46.3-33.8,77.8-48,92.7c-2,2.1-3.7,3.9-5,5.3
		C1494.9,1343.1,1489.1,1343.4,1485.2,1340.1z"/>
	<path class="st0" d="M1395,1438.6c24.3,15.6,56.2,17.4,83,2c38.1-22,51.1-70.7,29.2-108.8c-22-38.1-70.7-51.1-108.8-29.2
		c-27.5,15.9-42,45.7-39.6,75.4l49.5-28.6c16.9-9.7,38.4-4,48.2,12.9c9.7,16.9,4,38.4-12.9,48.2L1395,1438.6z"/>
	<path class="st1" d="M1239.1,809.9c50.6-29.2,115.3-11.9,144.5,38.7l4.6,8c29.2,50.6,11.9,115.3-38.7,144.5
		c-10.1,5.8-23.1,2.4-28.9-7.7l-89.2-154.6C1225.5,828.7,1229,815.8,1239.1,809.9z"/>
	<path class="st0" d="M525,987.3c-1.2,1.1-2.2,2-3.1,2.7l12.1,13.8c1-0.8,2.1-1.8,3.3-2.9c7.4-6.6,19.5-17.4,34.8-27.6
		c18-12,39.6-22.5,61.9-24.3l-1.5-18.3c-26.7,2.2-51.4,14.6-70.6,27.3C545.5,969,532.3,980.8,525,987.3z"/>
	<path class="st1" d="M485.8,983.7c9.9-26,40.7-36.9,64.7-23c24.3,14,30,46.6,12,68.1l-12.5,14.8c-4,4.8-11.1,5.8-16.3,2.3
		l-49.2-33.3c-4.5-3.1-6.3-8.8-4.4-13.9L485.8,983.7z"/>
	<path class="st2" d="M430.6,1299.7c51.6,34.7,122.3-0.2,124.3-62.3l7.3-225.4c0.1-3.4-0.5-6.7-1.9-9.8
		c-14.2-32.5-58.5-36.9-78.7-7.8l-85.9,123.3C354.4,1177,370.7,1259.3,430.6,1299.7z"/>
	<path class="st1" d="M426.4,1275.5c28.8,26.2,68.5,29.5,88.6,7.4c20.2-22.1,13.2-61.3-15.6-87.5c-28.8-26.2-68.5-29.5-88.6-7.4
		C390.7,1210.1,397.7,1249.3,426.4,1275.5z"/>
	<path class="st0" d="M514.7,1340.1c3.8-3.3,4.2-9.2,0.9-13c-1.7-1.9-3.7-4-5.9-6.4c-14.6-15.5-39.4-41.8-42.6-81
		c-0.4-5.1-4.9-8.8-9.9-8.4c-5.1,0.4-8.8,4.9-8.4,9.9c3.8,46.3,33.8,77.8,48,92.7c2,2.1,3.7,3.9,5,5.3
		C505.1,1343.1,510.9,1343.4,514.7,1340.1z"/>
	<path class="st0" d="M605,1438.6c-24.3,15.6-56.2,17.4-83,2c-38.1-22-51.1-70.7-29.2-108.8c22-38.1,70.7-51.1,108.8-29.2
		c27.5,15.9,42,45.7,39.6,75.4l-49.5-28.6c-16.9-9.7-38.4-4-48.2,12.9c-9.7,16.9-4,38.4,12.9,48.2L605,1438.6z"/>
	<path class="st1" d="M760.9,809.9c-50.6-29.2-115.3-11.9-144.5,38.7l-4.6,8c-29.2,50.6-11.9,115.3,38.7,144.5
		c10.1,5.8,23.1,2.4,28.9-7.7l89.2-154.6C774.4,828.7,771,815.8,760.9,809.9z"/>
	<path class="st2" d="M1128.1,1402c-55.3,104.4-204.8,104.4-260.1,0l-211.3-398.9c-45.4-85.8,16.7-189.1,113.8-189.1h455.2
		c97.1,0,159.2,103.3,113.8,189.1L1128.1,1402z"/>
	<path class="st1" d="M1061.4,1257.3c-28.6,47.6-97.6,47.6-126.2,0l-138.5-230.6c-29.5-49.1,5.9-111.5,63.1-111.5h277.1
		c57.2,0,92.5,62.4,63.1,111.5L1061.4,1257.3z"/>
	<path class="st2" d="M1129.8,1176.5h-98.4l-33.1-64.5l-33.1,64.5h-98.4l-93.8-183.7H887l33.3,67.7l32.9-67.7h90.2l33.3,67.7
		l33-67.7h114.1L1129.8,1176.5z"/>
	<path class="st0" d="M1146.2,1184.9c-3.1,6.2-9.5,10-16.4,10h-98.4c-6.9,0-13.2-3.9-16.4-10l-16.7-32.6l-16.8,32.6
		c-3.2,6.1-9.5,10-16.4,10h-98.4c-6.9,0-13.2-3.9-16.4-10l-93.8-183.7c-2.9-5.7-2.7-12.5,0.7-18c3.3-5.5,9.3-8.8,15.7-8.8H887
		c7,0,13.4,4,16.5,10.3l16.7,33.9l16.4-33.8c3.1-6.3,9.5-10.4,16.5-10.4h90.2c7,0,13.4,4,16.5,10.3l16.7,33.9l16.5-33.9
		c3.1-6.3,9.5-10.3,16.5-10.3h114.1c6.4,0,12.3,3.3,15.7,8.8c3.3,5.5,3.6,12.3,0.7,18L1146.2,1184.9z M1076.6,1060.5l-33.3-67.7
		h-90.2l-32.9,67.7L887,992.8H772.9l93.8,183.7h98.4l33.1-64.5l33.1,64.5h98.4l93.8-183.7h-114.1L1076.6,1060.5z"/>
	<path class="st0" d="M916.7,531.3c-91.3,30.3-157.2,116.4-157.2,217.9c0,25.4,20.6,45.9,45.9,45.9h385.7
		c25.4,0,45.9-20.6,45.9-45.9c0-101.5-65.9-187.6-157.2-217.9C1016.3,516.2,962.8,520.2,916.7,531.3z"/>
	<path class="st2" d="M909.3,549.3c-7.8-13,1.6-29.6,16.8-29.6H1070c15.2,0,24.6,16.6,16.8,29.6c-17.7,29.5-49.5,47.5-83.9,47.5
		h-9.6C958.9,596.8,927,578.8,909.3,549.3z"/>
	<path class="st3" d="M918.7,720.2c17.8,0,32.2-14.4,32.2-32.2s-14.4-32.2-32.2-32.2c-17.8,0-32.2,14.4-32.2,32.2
		S901,720.2,918.7,720.2z M918.7,731.3c23.9,0,43.2-19.4,43.2-43.2c0-23.9-19.4-43.2-43.2-43.2c-23.9,0-43.2,19.4-43.2,43.2
		C875.5,711.9,894.9,731.3,918.7,731.3z"/>
	<path class="st3" d="M1078.8,720.2c17.8,0,32.2-14.4,32.2-32.2s-14.4-32.2-32.2-32.2c-17.8,0-32.2,14.4-32.2,32.2
		S1061,720.2,1078.8,720.2z M1078.8,731.3c23.9,0,43.2-19.4,43.2-43.2c0-23.9-19.4-43.2-43.2-43.2c-23.9,0-43.2,19.4-43.2,43.2
		C1035.6,711.9,1054.9,731.3,1078.8,731.3z"/>
</g>
</svg>
